<?xml version="1.0" encoding="utf-8"?>
<!-- Generator: Adobe Illustrator 25.0.1, SVG Export Plug-In . SVG Version: 6.00 Build 0)  -->
<svg version="1.1" id="Layer_6" xmlns="http://www.w3.org/2000/svg" xmlns:xlink="http://www.w3.org/1999/xlink" x="0px" y="0px"
	 viewBox="0 0 17 16.4" style="enable-background:new 0 0 17 16.4;" xml:space="preserve">
<g>
	<polygon points="6,8.1 9.3,10.5 10.4,9.7 8.4,8.1 	"/>
	<path d="M10.8,11.7l3.1,2.4c0.4-0.3,0.7-0.7,1-1.1L12,10.9L10.8,11.7z"/>
	<polygon points="5.7,9.6 3.8,8.1 1.5,8.2 4.5,10.5 	"/>
	<polygon points="15.2,9.6 12.9,8 10.7,8.1 13.9,10.5 	"/>
	<path d="M10.8,15.2l0.6,0.5c0.5-0.2,1-0.4,1.4-0.7l-0.8-0.6L10.8,15.2z"/>
	<polygon points="10.4,13.1 7.3,10.8 6.2,11.6 9.3,14.1 	"/>
	<path d="M1.1,9.6L0.4,9.1c0,0.3,0.1,0.6,0.2,0.9L1.1,9.6z"/>
	<path d="M6.1,15.2l1.2,0.9c0.8,0.1,1.5,0.1,2.3,0l-2.3-1.7L6.1,15.2z"/>
	<polygon points="5.7,13.1 2.6,10.8 1.5,11.6 4.5,14.1 	"/>
	<path d="M15.6,8.1l1.1,0.9c0-0.2,0-0.5,0-0.8L15.6,8.1z"/>
	<polygon points="10.6,13.3 9.6,14.1 8.4,14.9 9.6,15.8 10.7,15 11.8,14.1 12.8,13.5 11.7,12.5 	"/>
	<path d="M13.3,11.3l1,0.8l1.9-1.4c0.2-0.5,0.3-1,0.4-1.4L16.4,9L13.3,11.3z"/>
	<polygon points="8.7,8.1 9.6,8.7 10.5,8.1 	"/>
	<polygon points="4.7,10.6 3.8,11.3 4.9,12.2 6.1,11.3 7.1,10.6 7.9,10 6.9,9 6,9.7 	"/>
	<path d="M1.8,12.7c0.3,0.4,0.6,0.8,1,1.1l0.5-0.4l-1.2-1L1.8,12.7z"/>
	<polygon points="4.9,8.6 5.7,8 4,8.1 	"/>
	<path d="M3.3,9.9l-1.1-1L1.2,9.7l-0.6,0.5c0.1,0.5,0.3,1,0.6,1.4l0.1-0.1l1.2-0.9L3.3,9.9z"/>
	<polygon points="11.8,10.7 12.8,9.9 11.6,9 10.6,9.8 9.4,10.7 8.5,11.3 9.7,12.3 10.6,11.5 	"/>
	<polygon points="13.4,8.1 14.3,8.8 15.2,8.1 	"/>
	<path d="M8,13.5l-1.2-1l-1,0.7l-1.2,0.9L4,14.8c0.5,0.3,0.9,0.6,1.4,0.8l0.6-0.5l1.2-1L8,13.5z"/>
	<path d="M0.5,9l1-0.9H0.3C0.3,8.5,0.3,8.7,0.5,9L0.5,9z"/>
	<path d="M8.5,1c3.5,0,6.3,2.8,6.3,6.3h0.7c0-3.9-3.2-7-7-7s-7,3.2-7,7H2C2.1,3.9,5,1,8.5,1z"/>
</g>
</svg>
