<svg width="32" height="32" viewBox="0 0 32 32" fill="none" xmlns="http://www.w3.org/2000/svg">
<path d="M1.6 29.52V9.84C1.22667 9.78667 0.866667 9.52 0.52 9.04C0.173333 8.56 0 8.04 0 7.48V2.4C0 1.78667 0.24 1.23333 0.72 0.74C1.2 0.246667 1.76 0 2.4 0H29.6C30.2133 0 30.7667 0.246667 31.26 0.74C31.7533 1.23333 32 1.78667 32 2.4V7.48C32 8.04 31.8267 8.56 31.48 9.04C31.1333 9.52 30.7733 9.78667 30.4 9.84V29.52C30.4 30.1333 30.1533 30.7 29.66 31.22C29.1667 31.74 28.6133 32 28 32H4C3.36 32 2.8 31.74 2.32 31.22C1.84 30.7 1.6 30.1333 1.6 29.52ZM4 9.88V29.6H28V9.88H4ZM29.6 7.48V2.4H2.4V7.48H29.6ZM11.2 18.28H20.8V15.88H11.2V18.28ZM4 29.6V9.88V29.6Z" fill="black"/>
</svg>
