<svg width="35" height="32" viewBox="0 0 35 32" fill="none" xmlns="http://www.w3.org/2000/svg">
<path d="M17.4625 32L15.6726 30.3847C10.9286 26.0482 7.13051 22.2647 4.27831 19.0341C1.4261 15.8035 0 12.5293 0 9.21146C0 6.59209 0.8804 4.402 2.6412 2.6412C4.402 0.8804 6.57754 0 9.1678 0C10.6521 0 12.1219 0.356526 13.5771 1.06958C15.0323 1.78263 16.3274 2.95407 17.4625 4.5839C18.7431 2.95407 20.0673 1.78263 21.4352 1.06958C22.8031 0.356526 24.2437 0 25.7572 0C28.3474 0 30.523 0.8804 32.2838 2.6412C34.0446 4.402 34.925 6.59209 34.925 9.21146C34.925 12.5293 33.4989 15.8035 30.6467 19.0341C27.7945 22.2647 23.9964 26.0482 19.2524 30.3847L17.4625 32ZM17.4625 28.5512C21.8863 24.4766 25.4661 20.9404 28.2019 17.9427C30.9377 14.945 32.3056 12.0346 32.3056 9.21146C32.3056 7.29059 31.6871 5.71169 30.4502 4.47476C29.2133 3.23784 27.6489 2.61937 25.7572 2.61937C24.302 2.61937 22.9341 3.07049 21.6535 3.97271C20.3729 4.87494 19.3251 6.17008 18.5102 7.85812H16.3711C15.5853 6.17008 14.5448 4.87494 13.2497 3.97271C11.9545 3.07049 10.5939 2.61937 9.1678 2.61937C7.24693 2.61937 5.67531 3.23784 4.45293 4.47476C3.23056 5.71169 2.61937 7.29059 2.61937 9.21146C2.61937 12.0346 3.98727 14.945 6.72306 17.9427C9.45884 20.9404 13.0387 24.4766 17.4625 28.5512Z" fill="black"/>
</svg>
